<?xml version="1.0" encoding="UTF-8"?>
<svg width="135px" height="26px" viewBox="0 0 135 26" version="1.1" xmlns="http://www.w3.org/2000/svg" xmlns:xlink="http://www.w3.org/1999/xlink">
    <!-- Generator: Sketch 55.2 (78181) - https://sketchapp.com -->
    <title>Logo (SiriusXM)</title>
    <desc>Created with Sketch.</desc>
    <g id="Michael-L.-Castilla's-Portfolio" stroke="none" stroke-width="1" fill="none" fill-rule="evenodd">
        <g id="Portfolio-(Panels)" transform="translate(-1106.000000, -148.000000)" fill="#FFFFFF">
            <g id="Panels" transform="translate(332.000000, 49.000000)">
                <g id="SiriusXM-Publish" transform="translate(0.000000, 78.000000)">
                    <g id="Logos" transform="translate(774.000000, 21.000000)">
                        <g id="Assets-/-SXM-Logo-/-White-/-Full-Lockuo">
                            <g id="Group" transform="translate(-0.768411, 0.000000)">
                                <g fill-rule="nonzero">
                                    <g id="Path">
                                        <g transform="translate(121.048980, 0.000000)">
                                            <path d="M8.79934694,2.09893878 L8.79934694,2.09893878 C10.9909388,5.29559184 12.149551,9.05061224 12.149551,12.9452245 C12.149551,16.8537959 10.9909388,20.6088163 8.78538776,23.8054694 C8.39453061,24.3638367 8.54808163,25.1315918 9.10644898,25.522449 C9.66481633,25.9133061 10.4325714,25.7737143 10.8094694,25.2013878 C13.2942041,21.5859592 14.6063673,17.3423673 14.6063673,12.9452245 C14.6063673,8.54808163 13.2942041,4.31844898 10.8234286,0.703020408 C10.4465306,0.144653061 9.67877551,0.00506122449 9.10644898,0.381959184 C8.56204082,0.772816327 8.42244898,1.54057143 8.79934694,2.09893878"></path>
                                            <path d="M4.90473469,22.1443265 L4.90473469,22.1443265 C5.44914286,22.5491429 6.21689796,22.4374694 6.63567347,21.8930612 C8.576,19.3106122 9.60897959,16.2256327 9.60897959,12.9731429 C9.60897959,9.69273469 8.56204082,6.59379592 6.59379592,3.99738776 C6.18897959,3.45297959 5.40726531,3.35526531 4.86285714,3.76008163 C4.31844898,4.17885714 4.22073469,4.94661224 4.62555102,5.49102041 L4.62555102,5.49102041 C6.27273469,7.66865306 7.15216327,10.251102 7.15216327,12.987102 C7.15216327,15.6951837 6.30065306,18.2636735 4.66742857,20.4273469 C4.24865306,20.9577959 4.36032653,21.7395102 4.90473469,22.1443265"></path>
                                            <path d="M0.52155102,19.1291429 L0.52155102,19.1291429 C1.052,19.5618776 1.83371429,19.4641633 2.2524898,18.9337143 C3.6204898,17.2306939 4.37428571,15.0809796 4.37428571,12.8893878 C4.37428571,10.7117551 3.66236735,8.6597551 2.3362449,6.95673469 C1.91746939,6.41232653 1.1357551,6.32857143 0.605306122,6.74734694 C0.0748571429,7.16612245 -0.0228571429,7.93387755 0.395918367,8.47828571 L0.395918367,8.47828571 C1.38702041,9.74857143 1.91746939,11.2840816 1.91746939,12.9033469 C1.91746939,14.5644898 1.37306122,16.1139592 0.340081633,17.3982041 L0.340081633,17.3982041 C-0.0926530612,17.9286531 -0.00889795918,18.7103673 0.52155102,19.1291429"></path>
                                        </g>
                                        <g>
                                            <path d="M6.68644898,23.8054694 C4.48089796,20.6088163 3.32228571,16.8398367 3.32228571,12.9452245 C3.32228571,9.05061224 4.48089796,5.29559184 6.6724898,2.09893878 C7.04938776,1.54057143 6.90979592,0.772816327 6.35142857,0.381959184 C5.79306122,-0.00889795918 5.02530612,0.144653061 4.64840816,0.703020408 C2.17763265,4.31844898 0.865469388,8.54808163 0.865469388,12.9452245 C0.865469388,17.3563265 2.17763265,21.5859592 4.66236735,25.2013878 L4.66236735,25.2013878 C5.05322449,25.7597551 5.82097959,25.8993469 6.37934694,25.522449 C6.93771429,25.1315918 7.07730612,24.3638367 6.68644898,23.8054694 C6.68644898,23.8054694 7.07730612,24.3638367 6.68644898,23.8054694 C6.68644898,23.8054694 7.07730612,24.3638367 6.68644898,23.8054694 L6.68644898,23.8054694 Z"></path>
                                            <path d="M10.8602449,5.49102041 C11.2650612,4.94661224 11.1673469,4.17885714 10.6229388,3.76008163 C10.0785306,3.35526531 9.31077551,3.45297959 8.892,3.99738776 L8.892,3.99738776 C6.90979592,6.59379592 5.87681633,9.70669388 5.87681633,12.9731429 C5.87681633,16.2256327 6.90979592,19.3106122 8.85012245,21.8930612 C9.25493878,22.4374694 10.0366531,22.5491429 10.567102,22.1443265 C11.1115102,21.7395102 11.2231837,20.9577959 10.8044082,20.4273469 C9.18514286,18.2636735 8.31967347,15.6951837 8.31967347,12.987102 C8.33363265,10.251102 9.19910204,7.65469388 10.8602449,5.49102041 L10.8602449,5.49102041 L10.8602449,5.49102041 L10.8602449,5.49102041 L10.8602449,5.49102041 Z"></path>
                                            <path d="M11.097551,12.9033469 C11.097551,15.0949388 11.8513469,17.2446531 13.2193469,18.9476735 C13.6520816,19.4781224 14.4198367,19.5618776 14.9502857,19.143102 C15.4807347,18.7103673 15.5644898,17.9426122 15.1317551,17.4121633 C14.0987755,16.1279184 13.5543673,14.5644898 13.5543673,12.9173061 C13.5543673,11.2980408 14.0848163,9.76253061 15.0759184,8.4922449 L15.0759184,8.4922449 C15.4946939,7.96179592 15.3969796,7.18008163 14.8665306,6.76130612 C14.3360816,6.34253061 13.5543673,6.4402449 13.1355918,6.97069388 C11.7955102,8.67371429 11.097551,10.7257143 11.097551,12.9033469 C11.097551,12.9033469 11.097551,10.7257143 11.097551,12.9033469 C11.097551,12.9033469 11.097551,10.7257143 11.097551,12.9033469 L11.097551,12.9033469 Z"></path>
                                        </g>
                                    </g>
                                    <g transform="translate(16.751020, 4.583673)">
                                        <path d="M6.22579592,11.0556735 C6.22579592,11.628 6.44914286,12.0607347 6.82604082,12.3538776 C7.17502041,12.619102 7.66359184,12.7866122 8.208,12.7866122 C9.07346939,12.7866122 9.99477551,12.5213878 9.99477551,11.5163265 C9.99477551,9.24097959 1.2842449,11.0556735 1.2842449,5.54179592 C1.2842449,1.89844898 5.05322449,0.851510204 8.01257143,0.851510204 C11.1115102,0.851510204 14.740898,1.56342857 15.0759184,5.33240816 L9.95289796,5.33240816 C9.89706122,4.8717551 9.70163265,4.55069388 9.4084898,4.29942857 C9.11534694,4.04816327 8.69657143,3.95044898 8.26383673,3.95044898 C7.28669388,3.95044898 6.65853061,4.24359184 6.65853061,4.9555102 C6.65853061,6.93771429 15.6342857,5.61159184 15.6342857,10.9300408 C15.6342857,13.8893878 13.1914286,15.8995102 7.98465306,15.8995102 C4.73216327,15.8995102 1.14465306,14.894449 0.851510204,11.0696327 L6.22579592,11.0696327 L6.22579592,11.0556735 Z" id="Path"></path>
                                        <path d="M16.5835102,0.865469388 L21.1621224,0.865469388 L21.1621224,3.05706122 L16.5835102,3.05706122 L16.5835102,0.865469388 Z M16.5835102,15.5505306 L16.5835102,3.99232653 L21.1621224,3.99232653 L21.1621224,15.5505306 L16.5835102,15.5505306 Z" id="Shape"></path>
                                        <path d="M22.3905306,4.00628571 L26.5643265,4.00628571 L26.5643265,6.33746939 L26.6062041,6.33746939 C27.2483265,4.53673469 28.3650612,3.67126531 30.1518367,3.67126531 C30.3472653,3.67126531 30.5426939,3.71314286 30.7520816,3.74106122 L30.7520816,8.31967347 C30.4449796,8.27779592 30.1099592,8.19404082 29.8028571,8.19404082 C27.9323265,8.19404082 26.983102,9.07346939 26.983102,11.5721633 L26.983102,15.5644898 L22.3905306,15.5644898 L22.3905306,4.00628571 Z" id="Path"></path>
                                        <path d="M31.7152653,0.865469388 L36.3078367,0.865469388 L36.3078367,3.05706122 L31.7152653,3.05706122 L31.7152653,0.865469388 Z M31.7152653,15.5505306 L31.7152653,3.99232653 L36.3078367,3.99232653 L36.3078367,15.5505306 L31.7152653,15.5505306 Z" id="Shape"></path>
                                        <path d="M49.9878367,15.5505306 L45.7302857,15.5505306 L45.7302857,13.8475102 C44.5856327,15.4388571 43.4549388,15.8715918 41.570449,15.8715918 C39.0577959,15.8715918 37.4245714,14.3360816 37.4245714,11.0277551 L37.4245714,3.99232653 L42.0031837,3.99232653 L42.0031837,10.2320816 C42.0031837,11.8234286 42.561551,12.3259592 43.6503673,12.3259592 C44.9764898,12.3259592 45.3952653,11.3348571 45.3952653,9.54808163 L45.3952653,3.99232653 L49.9738776,3.99232653 L49.9738776,15.5505306 L49.9878367,15.5505306 Z" id="Path"></path>
                                        <path d="M54.8456327,11.9630204 C54.8456327,12.4236735 55.027102,12.7726531 55.3342041,13.0239184 C55.6273469,13.2472653 56.0182041,13.372898 56.464898,13.372898 C57.1768163,13.372898 57.9166531,13.149551 57.9166531,12.3399184 C57.9166531,10.4833469 50.8393469,11.9630204 50.8393469,7.49608163 C50.8393469,4.53673469 53.9103673,3.68522449 56.3113469,3.68522449 C58.824,3.68522449 61.7833469,4.25755102 62.0485714,7.32857143 L57.8887347,7.32857143 C57.8468571,6.95167347 57.6933061,6.68644898 57.4420408,6.49102041 C57.2047347,6.29559184 56.8697143,6.21183673 56.5207347,6.21183673 C55.7250612,6.21183673 55.2225306,6.44914286 55.2225306,7.02146939 C55.2225306,8.62677551 62.5231837,7.55191837 62.5231837,11.8653061 C62.5231837,14.2662857 60.5409796,15.8995102 56.3113469,15.8995102 C53.659102,15.8995102 50.7555918,15.0898776 50.5182857,11.9769796 L54.8456327,11.9769796 L54.8456327,11.9630204 Z" id="Path"></path>
                                        <polygon id="Path" points="66.9482449 8.0404898 62.2579592 1.25632653 68.5256327 1.25632653 70.3124082 4.81591837 72.2108571 1.25632653 78.3947755 1.25632653 73.5369796 8.01257143 78.4506122 15.4807347 72.1550204 15.4807347 70.144898 11.4046531 68.0789388 15.4807347 61.8391837 15.4807347"></polygon>
                                        <path d="M78.813551,1.25632653 L83.9924082,1.25632653 L83.9924082,3.37812245 C84.7043265,2.28930612 85.9746122,0.851510204 88.0126531,0.851510204 C90.3717551,0.851510204 91.7955918,1.94032653 92.4656327,3.44791837 C93.6940408,1.74489796 94.7549388,0.851510204 96.820898,0.851510204 C100.394449,0.851510204 102.167265,3.18269388 102.167265,7.06334694 L102.167265,15.4807347 L96.5277551,15.4807347 L96.5277551,8.23591837 C96.5277551,6.14204082 96.3881633,5.3044898 94.8945306,5.3044898 C93.3031837,5.3044898 93.3171429,6.74228571 93.3171429,8.44530612 L93.3171429,15.4807347 L87.6776327,15.4807347 L87.6776327,8.23591837 C87.6776327,6.14204082 87.552,5.34636735 86.0444082,5.3044898 C84.4949388,5.26261224 84.4530612,6.74228571 84.4530612,8.44530612 L84.4530612,15.4807347 L78.813551,15.4807347 L78.813551,1.25632653 L78.813551,1.25632653 Z" id="Path"></path>
                                    </g>
                                </g>
                                <g transform="translate(116.861224, 3.187755)" fill-rule="nonzero" id="Shape">
                                    <path d="M1.86163265,0.0977142857 C1.02408163,0.0977142857 0.340081633,0.781714286 0.340081633,1.61926531 L0.340081633,1.63322449 C0.340081633,2.47077551 1.02408163,3.14081633 1.84767347,3.14081633 C2.68522449,3.14081633 3.36922449,2.45681633 3.36922449,1.63322449 L3.36922449,1.61926531 C3.36922449,0.781714286 2.68522449,0.0977142857 1.86163265,0.0977142857 Z M1.84767347,2.93142857 C1.12179592,2.93142857 0.549469388,2.35910204 0.549469388,1.61926531 L0.549469388,1.60530612 C0.549469388,0.865469388 1.12179592,0.293142857 1.86163265,0.293142857 C2.5875102,0.293142857 3.15983673,0.865469388 3.15983673,1.60530612 L3.15983673,1.61926531 C3.15983673,2.35910204 2.5875102,2.93142857 1.84767347,2.93142857 Z"></path>
                                    <path d="M2.54563265,1.29820408 L2.54563265,1.29820408 C2.54563265,1.15861224 2.5037551,1.04693878 2.42,0.963183673 C2.30832653,0.851510204 2.15477551,0.795673469 1.94538776,0.795673469 L1.24742857,0.795673469 L1.24742857,2.35910204 L1.54057143,2.35910204 L1.54057143,1.81469388 L1.86163265,1.81469388 L1.87559184,1.81469388 L2.2524898,2.35910204 L2.60146939,2.35910204 L2.18269388,1.77281633 C2.39208163,1.70302041 2.54563265,1.54946939 2.54563265,1.29820408 Z M1.93142857,1.54946939 L1.54057143,1.54946939 L1.54057143,1.06089796 L1.93142857,1.06089796 C2.12685714,1.06089796 2.23853061,1.14465306 2.23853061,1.29820408 L2.23853061,1.31216327 C2.23853061,1.46571429 2.12685714,1.54946939 1.93142857,1.54946939 Z"></path>
                                </g>
                            </g>
                        </g>
                    </g>
                </g>
            </g>
        </g>
    </g>
</svg>