<?xml version="1.0" encoding="UTF-8"?>
<svg width="117px" height="26px" viewBox="0 0 117 26" version="1.1" xmlns="http://www.w3.org/2000/svg" xmlns:xlink="http://www.w3.org/1999/xlink">
    <!-- Generator: Sketch 55.2 (78181) - https://sketchapp.com -->
    <title>Logo</title>
    <desc>Created with Sketch.</desc>
    <g id="Michael-L.-Castilla's-Portfolio" stroke="none" stroke-width="1" fill="none" fill-rule="evenodd">
        <g id="Portfolio-(Panels)" transform="translate(-1121.000000, -693.000000)" fill="#FFFFFF" fill-rule="nonzero">
            <g id="Panels" transform="translate(332.000000, 49.000000)">
                <g id="Toronto-Escapes" transform="translate(0.000000, 624.000000)">
                    <g id="Logo" transform="translate(789.000000, 20.000000)">
                        <g id="Group" transform="translate(0.000000, 13.000000)">
                            <path d="M114.018533,5.4826087 C113.958301,5.4826087 113.82278,5.36956522 113.611969,5.28478261 C113.491506,5.17173913 113.340927,5.08695652 113.340927,4.84673913 C113.340927,4.64891304 113.46139,4.46521739 113.611969,4.39456522 C113.807722,4.33804348 113.958301,4.21086957 114.169112,4.21086957 C114.289575,4.21086957 114.515444,4.32391304 114.635907,4.39456522 C114.846718,4.45108696 114.90695,4.5923913 114.90695,4.77608696 L116.879537,4.77608696 C116.879537,4.08369565 116.608494,3.56086957 116.006178,3.09456522 C115.449035,2.57173913 114.861776,2.40217391 114.214286,2.40217391 C113.476448,2.40217391 112.828958,2.58586957 112.241699,3.09456522 C111.684556,3.47608696 111.413514,4.05543478 111.413514,4.77608696 C111.413514,5.10108696 111.503861,5.41195652 111.609266,5.73695652 C111.72973,5.99130435 111.880309,6.25978261 112.166409,6.42934783 L112.723552,6.68369565 L114.229344,7.24891304 C114.349807,7.24891304 114.635907,7.36195652 114.83166,7.57391304 C114.952124,7.63043478 115.102703,7.82826087 115.102703,8.09673913 C115.102703,8.28043478 114.982239,8.47826087 114.83166,8.61956522 C114.620849,8.7326087 114.349807,8.8173913 114.154054,8.8173913 C113.883012,8.8173913 113.596911,8.7326087 113.476448,8.56304348 C113.280695,8.45 113.205405,8.23804348 113.205405,7.92717391 L111.127413,7.92717391 C111.127413,8.74673913 111.398456,9.39673913 111.955598,9.86304348 C112.557915,10.3858696 113.250579,10.6402174 114.078764,10.6402174 L114.635907,10.6402174 C114.90695,10.5271739 115.238224,10.3858696 115.464093,10.3152174 C115.735135,10.2021739 116.021236,9.99021739 116.201931,9.87717391 C116.548263,9.62282609 116.668726,9.31195652 116.879537,8.97282609 C116.939768,8.71847826 117,8.33695652 117,7.94130435 C117,7.24891304 116.728958,6.64130435 116.262162,6.38695652 C115.705019,6.06195652 115.162934,5.82173913 114.47027,5.69456522 L114.018533,5.4826087 L114.018533,5.4826087 Z M110.314286,6.47173913 C110.314286,5.39782609 109.907722,4.47934783 109.169884,3.71630435 C108.341699,2.81195652 107.317761,2.41630435 106.158301,2.41630435 C105.0139,2.41630435 103.944788,2.79782609 102.996139,3.71630435 C102.258301,4.49347826 101.851737,5.45434783 101.851737,6.61304348 C101.851737,7.68695652 102.258301,8.69021739 103.086486,9.43913043 C103.959846,10.2586957 104.93861,10.6543478 106.098069,10.6543478 C106.971429,10.6543478 107.799614,10.4 108.567568,9.96195652 C109.305405,9.43913043 109.862548,8.88804348 110.133591,8.15326087 L107.874903,8.15326087 C107.75444,8.4076087 107.408108,8.59130435 107.137066,8.67608696 C106.790734,8.78913043 106.459459,8.78913043 106.037838,8.78913043 C105.555985,8.78913043 105.074131,8.67608696 104.742857,8.46413043 C104.396525,8.13913043 104.065251,7.82826087 103.914672,7.30543478 L110.299228,7.30543478 L110.299228,7.15 L110.314286,6.47173913 Z M107.513514,4.57826087 C107.859846,4.8326087 108.19112,5.21413043 108.386873,5.65217391 L103.839382,5.65217391 C103.92973,5.27065217 104.245946,4.95978261 104.57722,4.62065217 C104.983784,4.42282609 105.405405,4.23913043 105.962548,4.1826087 L106.02278,4.1826087 C106.594981,4.19673913 107.091892,4.39456522 107.513514,4.57826087 L107.513514,4.57826087 Z M100.632046,4.97391304 C100.511583,4.45108696 100.165251,4.06956522 99.803861,3.67391304 C99.3972973,3.23586957 98.9305019,2.89673913 98.4185328,2.71304348 C97.86139,2.51521739 97.3945946,2.38804348 96.7621622,2.38804348 C96.1598456,2.38804348 95.6629344,2.50108696 95.3316602,2.71304348 C94.8498069,2.91086957 94.4583012,3.23586957 94.0969112,3.67391304 L94.0969112,2.6423913 L92.3050193,2.6423913 L92.3050193,12.9717391 L94.2776062,12.9717391 L94.2776062,9.56630435 C94.6239382,9.89130435 94.9552124,10.2021739 95.376834,10.3858696 C95.723166,10.498913 96.2501931,10.6402174 96.7621622,10.6402174 C97.9969112,10.6402174 98.9756757,10.2586957 99.7737452,9.425 C100.451351,8.60543478 100.872973,7.61630435 100.872973,6.59891304 C100.903089,5.99130435 100.812741,5.4826087 100.632046,4.97391304 L100.632046,4.97391304 Z M94.0969112,6.58478261 C94.0969112,5.8923913 94.3679537,5.36956522 94.7745174,4.90326087 C95.3316602,4.46521739 95.8737452,4.21086957 96.5664093,4.21086957 C97.2440154,4.21086957 97.8011583,4.46521739 98.2679537,4.90326087 C98.7498069,5.34130435 98.8702703,5.93478261 98.8702703,6.5 C98.8702703,7.13586957 98.6745174,7.65869565 98.1926641,8.09673913 C97.7861004,8.53478261 97.1687259,8.7326087 96.4911197,8.7326087 L96.084556,8.7326087 C95.8135135,8.7326087 95.6779923,8.61956522 95.4069498,8.54891304 C95.2864865,8.4923913 95.0606178,8.35108696 94.9401544,8.22391304 C94.7293436,7.96956522 94.4733591,7.70108696 94.3378378,7.40434783 C94.2474903,7.16413043 94.0969112,6.90978261 94.0969112,6.58478261 L94.0969112,6.58478261 Z M90.8745174,2.6423913 L89.0223938,2.6423913 L89.0223938,3.71630435 C88.6760618,3.27826087 88.284556,2.93913043 87.8779923,2.75543478 C87.3208494,2.50108696 86.7787645,2.37391304 86.3119691,2.37391304 C85.6343629,2.37391304 85.0772201,2.48695652 84.6104247,2.75543478 C84.0532819,2.93913043 83.6467181,3.27826087 83.2250965,3.71630435 C82.8787645,4.09782609 82.5474903,4.62065217 82.3969112,5.01630435 C82.1861004,5.46847826 82.1861004,5.97717391 82.1861004,6.57065217 C82.1861004,7.09347826 82.246332,7.60217391 82.3969112,7.98369565 C82.5926641,8.54891304 82.8637066,8.94456522 83.2250965,9.28369565 C83.5714286,9.72173913 83.9629344,10.0608696 84.4598456,10.2445652 C85.0169884,10.498913 85.5590734,10.626087 86.16139,10.626087 L86.7787645,10.626087 C87.1853282,10.5130435 87.6521236,10.3717391 88.0135135,10.1880435 C88.4200772,9.93369565 88.7513514,9.66521739 88.9772201,9.28369565 L89.0374517,9.28369565 L89.0374517,10.3576087 L90.8895753,10.3576087 L90.8745174,2.6423913 Z M88.2544402,4.8326087 C88.7362934,5.35543478 88.9320463,5.86413043 88.9320463,6.51413043 C88.9320463,7.15 88.7362934,7.67282609 88.2544402,8.11086957 C87.8478764,8.54891304 87.2305019,8.80326087 86.5528958,8.74673913 C85.9505792,8.83152174 85.3181467,8.63369565 84.8513514,8.18152174 C84.384556,7.72934783 84.1135135,7.27717391 84.1135135,6.58478261 C84.1135135,5.94891304 84.384556,5.36956522 84.7911197,4.90326087 C85.2579151,4.46521739 85.8150579,4.21086957 86.6432432,4.21086957 C87.3057915,4.19673913 87.8328185,4.45108696 88.2544402,4.8326087 L88.2544402,4.8326087 Z M81.1320463,5.22826087 C80.8610039,4.40869565 80.303861,3.67391304 79.5660232,3.15108696 C78.8281853,2.62826087 77.9096525,2.37391304 77.0362934,2.37391304 C75.8015444,2.37391304 74.8227799,2.75543478 73.9494208,3.5326087 C73.0760618,4.35217391 72.5640927,5.34130435 72.5640927,6.42934783 C72.5640927,6.99456522 72.7749035,7.50326087 72.9706564,8.11086957 C73.1664093,8.54891304 73.5277992,9.07173913 73.9343629,9.45326087 C74.3409266,9.83478261 74.807722,10.0184783 75.3196911,10.2304348 C75.8015444,10.4282609 76.2833977,10.6119565 76.7501931,10.6119565 L77.0212355,10.6119565 C77.8945946,10.6119565 78.8131274,10.3576087 79.5509653,9.83478261 C80.2888031,9.39673913 80.7857143,8.67608696 81.1169884,7.8423913 L78.8583012,7.8423913 L78.8583012,7.89891304 C78.7378378,8.09673913 78.3764479,8.33695652 78.1204633,8.53478261 C77.8494208,8.71847826 77.5181467,8.71847826 77.0965251,8.71847826 C76.3586873,8.71847826 75.8015444,8.53478261 75.3046332,8.0826087 C74.8378378,7.70108696 74.627027,7.17826087 74.627027,6.48586957 C74.627027,5.85 74.8378378,5.32717391 75.3046332,4.80434783 C75.7111969,4.42282609 76.3285714,4.16847826 76.9610039,4.16847826 C77.3675676,4.16847826 77.7891892,4.28152174 78.0602317,4.42282609 C78.4065637,4.62065217 78.6625483,4.80434783 78.888417,5.11521739 L81.1320463,5.22826087 L81.1320463,5.22826087 Z M66.3602317,5.75108696 C66.5710425,6.00543478 66.7667954,6.27391304 67.0378378,6.44347826 L67.5196911,6.69782609 L68.9501931,7.26304348 C69.1459459,7.26304348 69.3567568,7.37608696 69.5525097,7.58804348 C69.7482625,7.64456522 69.8988417,7.8423913 69.8988417,8.11086957 C69.8988417,8.29456522 69.7783784,8.54891304 69.5525097,8.63369565 C69.4320463,8.74673913 69.2061776,8.83152174 68.9501931,8.83152174 C68.603861,8.83152174 68.3930502,8.74673913 68.2123552,8.57717391 C68.0918919,8.46413043 67.9413127,8.19565217 67.9413127,7.94130435 L65.8633205,7.94130435 C65.8633205,8.76086957 66.2096525,9.41086957 66.827027,9.87717391 C67.2938224,10.4 67.9714286,10.6543478 68.8899614,10.6543478 L69.3567568,10.6543478 C69.7030888,10.5413043 69.9590734,10.4 70.2301158,10.3293478 C70.5011583,10.2163043 70.7872587,10.0043478 70.9679537,9.89130435 C71.2389961,9.63695652 71.434749,9.32608696 71.5702703,8.98695652 C71.6907336,8.66195652 71.7660232,8.35108696 71.7660232,7.95543478 C71.7660232,7.26304348 71.4949807,6.65543478 70.9378378,6.40108696 C70.5312741,6.07608696 69.9138996,5.83586957 69.2362934,5.70869565 L68.8297297,5.525 C68.6189189,5.44021739 68.4833977,5.41195652 68.3478764,5.32717391 C68.1521236,5.21413043 68.1521236,5.12934783 68.1521236,4.88913043 C68.1521236,4.69130435 68.1521236,4.5076087 68.3478764,4.43695652 C68.5586873,4.38043478 68.6942085,4.25326087 68.8297297,4.25326087 C69.0254826,4.25326087 69.2362934,4.36630435 69.3868726,4.43695652 C69.5374517,4.5076087 69.5976834,4.63478261 69.6579151,4.81847826 L71.5853282,4.81847826 C71.5853282,4.12608696 71.3142857,3.60326087 70.7571429,3.13695652 C70.2,2.61413043 69.6127413,2.44456522 68.9050193,2.44456522 C68.1671815,2.44456522 67.5196911,2.62826087 66.9776062,3.13695652 C66.4204633,3.51847826 66.1042471,4.09782609 66.1042471,4.81847826 C66.119305,5.08695652 66.2096525,5.35543478 66.3602317,5.75108696 L66.3602317,5.75108696 Z M65.0351351,7.29130435 L65.1254826,7.17826087 L65.1254826,6.48586957 C65.1254826,5.41195652 64.7189189,4.49347826 63.9810811,3.73043478 C63.1528958,2.82608696 62.1289575,2.43043478 60.9694981,2.43043478 C59.734749,2.43043478 58.7108108,2.81195652 57.8073359,3.73043478 C56.9791506,4.5076087 56.5725869,5.46847826 56.5725869,6.62717391 C56.5725869,7.70108696 56.9791506,8.70434783 57.8073359,9.45326087 C58.680695,10.2728261 59.734749,10.6684783 60.8942085,10.6684783 C61.7675676,10.6684783 62.5957529,10.4141304 63.3637066,9.97608696 C64.1015444,9.45326087 64.6586873,8.90217391 64.8694981,8.1673913 L62.6409266,8.1673913 C62.4451737,8.42173913 62.2343629,8.60543478 61.9030888,8.69021739 C61.5567568,8.80326087 61.2254826,8.80326087 60.803861,8.80326087 C60.3370656,8.80326087 59.8401544,8.69021739 59.5088803,8.47826087 C59.1023166,8.15326087 58.8312741,7.78586957 58.6355212,7.31956522 L65.0501931,7.31956522 L65.0501931,7.29130435 L65.0351351,7.29130435 Z M62.2343629,4.57826087 C62.7162162,4.8326087 62.9722008,5.27065217 63.107722,5.65217391 L58.5602317,5.65217391 C58.7559846,5.27065217 58.9667954,4.875 59.388417,4.62065217 C59.7949807,4.42282609 60.2166023,4.23913043 60.6833977,4.1826087 L60.803861,4.1826087 C61.3158301,4.19673913 61.8127413,4.39456522 62.2343629,4.57826087 L62.2343629,4.57826087 Z M51.588417,6.58478261 C51.588417,5.42608696 51.2420849,4.46521739 50.353668,3.68804348 C49.5254826,2.86847826 48.5015444,2.38804348 47.3420849,2.38804348 C46.1073359,2.38804348 45.0833977,2.76956522 44.1799228,3.60326087 C43.3517375,4.38043478 42.8849421,5.34130435 42.8849421,6.57065217 C42.8849421,7.64456522 43.3517375,8.56304348 44.1799228,9.39673913 C45.0081081,10.2163043 46.0320463,10.6119565 47.2667954,10.6119565 C48.4111969,10.6119565 49.4803089,10.2304348 50.353668,9.39673913 C51.1667954,8.66195652 51.588417,7.68695652 51.588417,6.58478261 L51.588417,6.58478261 Z M45.5200772,4.97391304 C45.7158301,4.77608696 45.8664093,4.64891304 46.0772201,4.45108696 C46.4235521,4.39456522 46.6343629,4.33804348 46.8150579,4.2673913 L47.2216216,4.21086957 C47.8239382,4.21086957 48.4563707,4.46521739 48.923166,4.90326087 C49.3297297,5.34130435 49.6007722,5.93478261 49.6007722,6.58478261 C49.6007722,7.22065217 49.3297297,7.74347826 48.923166,8.13913043 C48.4563707,8.57717391 47.8992278,8.775 47.2216216,8.775 C46.5440154,8.775 45.9266409,8.59130435 45.5200772,8.13913043 C45.0532819,7.68695652 44.842471,7.17826087 44.842471,6.58478261 C44.842471,6.25978261 44.9328185,6.01956522 45.0382239,5.68043478 C45.1285714,5.35543478 45.2490347,5.08695652 45.5200772,4.97391304 L45.5200772,4.97391304 Z M39.0602317,3.10869565 L38.0965251,3.10869565 L38.0965251,4.70543478 L39.0602317,4.70543478 L39.0602317,10.3858696 L40.9876448,10.3858696 L40.9876448,4.70543478 L42.2223938,4.70543478 L42.2223938,3.10869565 L40.9876448,3.10869565 L40.9876448,1.63913043 L39.0602317,1.63913043 L39.0602317,3.10869565 Z M37.0876448,4.97391304 C37.0274131,4.45108696 36.8166023,4.01304348 36.4853282,3.56086957 L36.2895753,3.37717391 C36.0787645,3.12282609 35.7324324,2.85434783 35.4162162,2.74130435 C35.0096525,2.62826087 34.5880309,2.48695652 34.1814672,2.41630435 L33.7598456,2.41630435 C33.4135135,2.41630435 33.0220077,2.52934783 32.6606178,2.74130435 C32.3142857,2.85434783 31.9830116,3.12282609 31.6969112,3.37717391 L31.6969112,2.68478261 L29.9050193,2.68478261 L29.9050193,10.4282609 L31.7722008,10.4282609 L31.8324324,6.03369565 L31.9528958,5.46847826 C32.0131274,5.21413043 32.0131274,5.08695652 32.1486486,4.94565217 C32.269112,4.76195652 32.4196911,4.56413043 32.615444,4.5076087 C32.8111969,4.45108696 33.0220077,4.32391304 33.2930502,4.25326087 L33.6393822,4.25326087 C33.7598456,4.25326087 34.0459459,4.36630435 34.3169884,4.5076087 C34.5127413,4.5923913 34.7235521,4.76195652 34.7837838,4.88913043 C34.9042471,5.00217391 34.9945946,5.21413043 35.0548263,5.41195652 L35.1451737,6.04782609 L35.1451737,10.4423913 L37.1177606,10.4423913 L37.1177606,6.38695652 C37.1328185,5.8076087 37.0876448,5.35543478 37.0876448,4.97391304 L37.0876448,4.97391304 Z M28.6853282,6.58478261 C28.6853282,5.42608696 28.2787645,4.46521739 27.4505792,3.68804348 C26.6223938,2.86847826 25.5984556,2.38804348 24.3637066,2.38804348 C23.1289575,2.38804348 22.1050193,2.76956522 21.276834,3.60326087 C20.4034749,4.42282609 19.8915058,5.34130435 19.8915058,6.57065217 C19.8915058,7.64456522 20.3583012,8.64782609 21.276834,9.39673913 C22.1050193,10.2163043 23.1289575,10.6119565 24.3637066,10.6119565 C25.5081081,10.6119565 26.4868726,10.2304348 27.3752896,9.39673913 C28.2034749,8.66195652 28.6853282,7.68695652 28.6853282,6.58478261 L28.6853282,6.58478261 Z M26.0351351,4.9173913 C26.5019305,5.35543478 26.7127413,5.94891304 26.7127413,6.59891304 C26.7127413,7.23478261 26.5019305,7.7576087 26.0351351,8.15326087 C25.5683398,8.59130435 25.0111969,8.78913043 24.3787645,8.78913043 C23.6409266,8.78913043 23.0837838,8.60543478 22.5868726,8.15326087 C22.1200772,7.70108696 21.984556,7.1923913 21.984556,6.59891304 C21.984556,6.2173913 21.984556,5.96304348 22.1050193,5.69456522 C22.165251,5.36956522 22.3760618,5.17173913 22.5718147,5.00217391 C22.692278,4.80434783 22.9783784,4.67717391 23.2494208,4.47934783 C23.4451737,4.42282609 23.7162162,4.36630435 23.927027,4.29565217 L24.3335907,4.23913043 C24.9660232,4.19673913 25.523166,4.45108696 26.0351351,4.9173913 L26.0351351,4.9173913 Z M19.5451737,2.37391304 L19.3494208,2.37391304 C19.0030888,2.37391304 18.6718147,2.48695652 18.3857143,2.62826087 C18.0393822,2.74130435 17.8285714,3.00978261 17.6478764,3.32065217 L17.6478764,2.62826087 L15.8108108,2.62826087 L15.8108108,10.3717391 L17.7833977,10.3717391 L17.7833977,5.97717391 C17.7833977,5.72282609 17.8436293,5.41195652 17.8436293,5.1576087 C17.903861,4.97391304 18.0393822,4.77608696 18.3104247,4.52173913 C18.430888,4.43695652 18.5061776,4.43695652 18.7169884,4.40869565 C18.8374517,4.35217391 18.9880309,4.35217391 19.1235521,4.29565217 L19.5301158,4.23913043 L19.5301158,2.38804348 L19.5451737,2.38804348 L19.5451737,2.37391304 Z M14.7416988,6.58478261 C14.7416988,5.42608696 14.3351351,4.46521739 13.4467181,3.68804348 C12.6185328,2.86847826 11.5945946,2.38804348 10.3598456,2.38804348 C9.12509653,2.38804348 8.1011583,2.76956522 7.1976834,3.60326087 C6.36949807,4.42282609 5.96293436,5.34130435 5.96293436,6.57065217 C5.96293436,7.64456522 6.36949807,8.56304348 7.1976834,9.39673913 C8.07104247,10.2163043 9.12509653,10.6119565 10.284556,10.6119565 C11.4289575,10.6119565 12.4980695,10.2304348 13.3714286,9.39673913 C14.2749035,8.66195652 14.7416988,7.68695652 14.7416988,6.58478261 L14.7416988,6.58478261 Z M12.0011583,4.9173913 C12.4679537,5.35543478 12.6787645,5.94891304 12.6787645,6.59891304 C12.6787645,7.23478261 12.4830116,7.7576087 12.0011583,8.15326087 C11.5945946,8.59130435 10.9772201,8.78913043 10.2996139,8.78913043 C9.62200772,8.78913043 9.06486486,8.60543478 8.5980695,8.15326087 C8.19150579,7.70108696 7.92046332,7.1923913 7.92046332,6.59891304 C7.92046332,6.27391304 7.98069498,6.03369565 8.13127413,5.69456522 C8.22162162,5.36956522 8.4023166,5.12934783 8.5980695,5.00217391 C8.80888031,4.80434783 9.0046332,4.67717391 9.2003861,4.47934783 C9.47142857,4.42282609 9.75752896,4.36630435 9.93822394,4.29565217 L10.284556,4.23913043 C10.9772201,4.19673913 11.5795367,4.45108696 12.0011583,4.9173913 L12.0011583,4.9173913 Z M6.15868726,1.93586957 L6.15868726,0.0847826087 L0.0602316602,0.0847826087 L0.0602316602,1.93586957 L2.12316602,1.93586957 L2.12316602,10.3717391 L4.18610039,10.3717391 L4.18610039,1.93586957 L6.15868726,1.93586957 Z" id="Shape"></path>
                        </g>
                        <path d="M69,13.9285714 C68.5911227,13.842945 68.3185379,13.8144028 68.121671,13.7287763 L65.5775457,12.4158372 L66.6073107,8.50556206 L62.8214099,9.03359192 L62.2610966,7.67783958 L57.1274151,12.2303132 L58.5660574,3.31088993 L56.6276762,4.09579918 L54.1441253,0 C53.1143603,1.82669789 52.4328982,2.85421546 52.0088773,3.31088993 C51.7362924,3.63912471 51.448564,3.83891979 51.1759791,3.83891979 C50.9033943,3.8960041 50.494517,3.78183548 49.7827676,3.51068501 L51.0851175,12.3016686 L45.9817232,7.74919496 L45.5122715,9.06213407 L41.7263708,8.53410422 L42.7561358,12.4443794 L40,13.9285714 L69,13.9285714 L69,13.9285714 Z" id="Path"></path>
                        <path d="M111,13.9285714 L111,13.5573262 L69.1883721,13.5573262 C68.7802326,13.5573262 68.5837209,13.5023269 68.3569767,13.4473276 L65.9383721,12.2648428 L67.0418605,8.31864335 L63.0360465,8.93738542 L62.4767442,7.42490481 L57.5186047,11.618601 L58.9093023,3.27245805 L56.8383721,4.06994782 L54.2988372,0 L54.0872093,0.316245946 C53.0593023,1.95247497 52.3790698,2.9562121 52.0162791,3.38245664 C51.8197674,3.62995346 51.5476744,3.80870117 51.3360465,3.80870117 C51.1395349,3.89120011 50.7313953,3.75370188 50.0360465,3.49245522 L49.7488372,3.36870681 L50.9883721,11.6598505 L46.1662791,7.38365534 L45.6069767,8.89613595 L41.6011628,8.27739388 L42.7046512,12.2235933 L40.0744186,13.5298265 L7,13.5298265 L7,13.9010718 L40.255814,13.9010718 L43.2034884,12.3885912 L42.1755814,8.74488789 L45.8186047,9.25363136 L46.2872093,8.12614582 L51.5325581,12.6498378 L50.1418605,3.98744888 C50.7011628,4.17994641 51.1093023,4.23494571 51.2906977,4.23494571 C51.6534884,4.17994641 51.9709302,4.056198 52.1674419,3.72620223 C52.5755814,3.29995769 53.2709302,2.29622056 54.2383721,0.714990833 L56.6569767,4.48244253 L58.3197674,3.86370047 L56.9290698,12.6635876 L62.355814,8.09864617 L62.7639535,9.28113101 L66.4069767,8.77238753 L65.4395349,12.4160908 L68.3418605,13.8460725 L68.3418605,13.7910732 C68.5383721,13.9010718 68.8104651,13.9010718 69.1732558,13.9010718 L110.984884,13.9010718 L110.984884,13.9285714 L111,13.9285714 Z" id="Path"></path>
                    </g>
                </g>
            </g>
        </g>
    </g>
</svg>