<?xml version="1.0" encoding="UTF-8"?>
<svg width="174px" height="26px" viewBox="0 0 174 26" version="1.1" xmlns="http://www.w3.org/2000/svg" xmlns:xlink="http://www.w3.org/1999/xlink">
    <!-- Generator: Sketch 55.2 (78181) - https://sketchapp.com -->
    <title>Logo</title>
    <desc>Created with Sketch.</desc>
    <g id="Michael-L.-Castilla's-Portfolio" stroke="none" stroke-width="1" fill="none" fill-rule="evenodd">
        <g id="Portfolio-(Panels)" transform="translate(-1068.000000, -538.000000)" fill-rule="nonzero">
            <g id="Panels" transform="translate(332.000000, 49.000000)">
                <g id="NCL-Escape-8" transform="translate(0.000000, 468.000000)">
                    <g id="NCL-Escape-7">
                        <g id="NCL-Escape-6">
                            <g id="NCL-Escape-5">
                                <g id="NCL-Escape-4">
                                    <g id="Logo" transform="translate(736.000000, 21.000000)">
                                        <path d="M30,0 L0,0 L0,25.4580004 C0,25.4580004 2.67348853,22.9734607 6.34819064,22.7312493 C11.6024934,22.3816658 13.7745477,24.9627571 18.7607568,25.8192366 C24.8574029,26.862993 28.8399162,23.0933179 29.771624,22.0037827 C30,21.7224512 29.9619373,21.6500375 29.9892432,21.5851149 L30,21.5035454 L30,0 L30,0 Z" id="Path" fill="#217AAA"></path>
                                        <path d="M2.62105869,20.6904435 C3.61760499,20.1678751 4.50114932,19.9025083 6.59577992,19.7824809 C11.659578,19.4885362 13.5486761,21.3632504 18.3381578,22.1038278 C22.1032522,22.6860017 24.2257239,21.8474427 25.8290416,20.8243517 C26.6790129,20.2813704 26.453009,20.4242602 26.898466,20.0535633 C27.2939729,19.725325 27.3897789,19.4958848 27.332459,19.2672611 C27.3144442,19.198674 27.2399284,19.198674 27.0974477,19.2933895 L26.7666304,19.510582 C22.9990794,22.1332223 18.0572906,20.5916454 13.7427447,19.2411327 C9.72871841,17.9853354 4.79757476,18.5356653 2.56619542,20.1205173 C2.56619542,20.1205173 2.30088646,20.2919851 2.11336871,20.5777647 C2.0519546,20.6716637 1.90865501,21.0570579 2.08470879,20.9754066 C2.28942249,20.8815076 2.45483116,20.7655627 2.62105869,20.689627 L2.62105869,20.6904435 Z M8.4840591,14.1665034 L4.21455014,8.57502123 L4.21455014,14.1665034 L2.3000676,14.1665034 L2.3000676,5.37020707 L4.08926536,5.37020707 L8.22038785,10.7853224 L8.22038785,5.37020707 L10.1356892,5.37020707 L10.1356892,14.1665034 L8.4840591,14.1665034 L8.4840591,14.1665034 Z M15.8963328,14.3167418 C13.3005631,14.3167418 11.3746166,12.3195506 11.3746166,9.79325887 L11.3746166,9.76876347 C11.3746166,7.26778366 13.2637146,5.21915213 15.9700297,5.21915213 C17.632305,5.21915213 18.6280324,5.77274806 19.4477061,6.57619701 L18.2136919,7.99692991 C17.5332236,7.38046247 16.8404724,7.00404991 15.9577469,7.00404991 C14.4731632,7.00404991 13.4029199,8.23453524 13.4029199,9.74263505 L13.4029199,9.76794696 C13.4029199,11.2760468 14.4477787,12.5326605 15.9577469,12.5326605 C16.9657572,12.5326605 17.5831737,12.1309361 18.2759249,11.5022209 L19.5107579,12.746587 C18.6042857,13.7141551 17.5962754,14.3167418 15.8963328,14.3167418 L15.8963328,14.3167418 Z M20.7930846,14.1665034 L20.7930846,5.37020707 L22.7337704,5.37020707 L22.7337704,12.4069175 L27.129383,12.4069175 L27.129383,14.1665034 L20.7930846,14.1665034 L20.7930846,14.1665034 Z M43.9887847,13.5051277 L37.5435785,5.06401463 L37.5435785,13.5051277 L34.653021,13.5051277 L34.653021,0.227807172 L37.3519665,0.227807172 L43.5900024,8.40273695 L43.5900024,0.228623685 L46.4805598,0.228623685 L46.4805598,13.5051277 L43.9887847,13.5051277 L43.9887847,13.5051277 Z M62.0740119,6.86687569 C62.0740119,4.58962048 60.4010915,2.69286041 58.0427897,2.69286041 C55.6844879,2.69286041 54.0500537,4.55369391 54.0500537,6.82931609 L54.0500537,6.86687569 C54.0500537,9.14331439 55.7221552,11.039258 58.0812759,11.039258 C60.43794,11.039258 62.0740119,9.18005748 62.0740119,6.9044353 L62.0740119,6.86687569 Z M58.0427897,13.7337514 C53.935414,13.7337514 50.9891744,10.6791756 50.9891744,6.9044353 L50.9891744,6.86687569 C50.9891744,3.09131883 53.9730813,0 58.0812759,0 C62.1878327,0 65.1348912,3.05539225 65.1348912,6.82931609 L65.1348912,6.86687569 C65.1348912,10.639983 62.1501654,13.7337514 58.0427897,13.7337514 L58.0427897,13.7337514 Z M77.4152567,4.76027174 C77.4152567,3.50855706 76.5407198,2.86351166 75.1150936,2.86351166 L72.2048836,2.86351166 L72.2048836,6.67662813 L75.1707757,6.67662813 C76.5972208,6.67662813 77.4144379,5.91890391 77.4144379,4.79946437 L77.4144379,4.76027174 L77.4152567,4.76027174 Z M77.3579369,13.5051277 L74.5058656,9.25680972 L72.2048836,9.25680972 L72.2048836,13.5051277 L69.2774776,13.5051277 L69.2774776,0.227807172 L75.3615689,0.227807172 C78.4994205,0.227807172 80.3811488,1.87716376 80.3811488,4.61084983 L80.3811488,4.64759292 C80.3811488,6.79093997 79.2224693,8.13737017 77.5282587,8.76363577 L80.78075,13.5051277 L77.3579369,13.5051277 L77.3579369,13.5051277 Z M99.2672161,13.6014763 L96.7197588,13.6014763 L93.7153805,4.91377621 L90.7101834,13.6014763 L88.1619072,13.6014763 L83.6189007,0.226990659 L86.7551146,0.226990659 L89.5121988,9.2184336 L92.4969245,0.190247567 L95.0067145,0.190247567 L97.9922591,9.2184336 L100.749343,0.228623685 L103.811041,0.228623685 L99.2663972,13.6022928 L99.2672161,13.6014763 Z M107.318197,13.5051277 L107.318197,0.227807172 L117.358994,0.227807172 L117.358994,2.82513554 L110.226769,2.82513554 L110.226769,5.51799595 L116.501653,5.51799595 L116.501653,8.11695735 L110.226769,8.11695735 L110.226769,10.9061663 L117.453162,10.9061663 L117.453162,13.5043112 L107.318197,13.5043112 L107.318197,13.5051277 Z M127.803487,13.7337514 C123.660082,13.7337514 120.807192,10.8318636 120.807192,6.9044353 L120.807192,6.86687569 C120.807192,3.09131883 123.755069,0 127.786291,0 C130.18226,0 131.62672,0.645045398 133.014679,1.82082435 L131.169799,4.04174015 C130.142955,3.18685087 129.230751,2.69286041 127.689666,2.69286041 C125.560644,2.69286041 123.86889,4.57084068 123.86889,6.82931609 L123.86889,6.86687569 C123.86889,9.29436933 125.542629,11.076001 127.900931,11.076001 C128.964623,11.076001 129.915314,10.8122673 130.657196,10.2807172 L130.657196,8.38314064 L127.709319,8.38314064 L127.709319,5.8625645 L133.490434,5.8625645 L133.490434,11.6279639 C132.12049,12.7841466 130.238761,13.7345679 127.803487,13.7345679 L127.803487,13.7337514 Z M138.058825,13.5051277 L140.986231,13.5051277 L140.986231,0.227807172 L138.058825,0.227807172 L138.058825,13.5051277 Z M151.603502,3.6416487 L149.834776,7.94712261 L153.372229,7.94712261 L151.603502,3.64246522 L151.603502,3.6416487 Z M155.633906,13.5051277 L154.135401,10.5281207 L148.789917,10.5281207 L147.57228,13.5051277 L144.586735,13.5051277 L150.290878,0.133908159 L152.990642,0.133908159 L158.695604,13.5051277 L155.633906,13.5051277 Z M171.509044,13.5051277 L165.063837,5.06401463 L165.063837,13.5051277 L162.17328,13.5051277 L162.17328,0.227807172 L164.873044,0.227807172 L171.109443,8.40273695 L171.109443,0.228623685 L174,0.228623685 L174,13.5051277 L171.509044,13.5051277 L171.509044,13.5051277 Z M37.9710207,25 C36.0115011,25 34.5563961,23.4927167 34.5563961,21.586975 L34.5563961,21.5665622 C34.5563961,19.6787837 35.9836601,18.1314913 38.0283405,18.1314913 C39.2836449,18.1314913 40.0345348,18.5503625 40.6527702,19.1570318 L39.7209134,20.2291136 C39.2074914,19.7645176 38.6850621,19.4795545 38.0176954,19.4795545 C36.8966832,19.4795545 36.0884735,20.409563 36.0884735,21.5485989 L36.0884735,21.5665622 C36.0884735,22.7047815 36.8778495,23.6543863 38.0185143,23.6543863 C38.7800492,23.6543863 39.2451588,23.3506434 39.768407,22.8770658 L40.7002638,23.8152394 C40.0157011,24.5468352 39.2558039,25 37.9710207,25 L37.9710207,25 Z M46.8899872,20.5140767 C46.8899872,19.8861781 46.4535376,19.5652884 45.7394962,19.5652884 L44.2843912,19.5652884 L44.2843912,21.4726631 L45.7673373,21.4726631 C46.4813787,21.4726631 46.8891684,21.0929845 46.8891684,20.53204 L46.8891684,20.5140767 L46.8899872,20.5140767 Z M46.8613273,24.8873212 L45.4348822,22.7627539 L44.2843912,22.7627539 L44.2843912,24.8873212 L42.8186411,24.8873212 L42.8186411,18.2490692 L45.8631433,18.2490692 C47.432888,18.2490692 48.374571,19.0721144 48.374571,20.438141 L48.374571,20.4569208 C48.374571,21.5298191 47.7931841,22.2042589 46.9464882,22.516167 L48.5743716,24.8881377 L46.8613273,24.8881377 L46.8613273,24.8873212 Z M53.421992,24.9918349 C51.6327943,24.9918349 50.540442,23.9956888 50.540442,22.0409563 L50.540442,18.2490692 L52.0045544,18.2490692 L52.0045544,22.0042132 C52.0045544,23.0860931 52.5474551,23.6454047 53.4416445,23.6454047 C54.3350151,23.6454047 54.877097,23.1040564 54.877097,22.051571 L54.877097,18.2490692 L56.3428471,18.2490692 L56.3428471,21.994415 C56.3428471,24.0046705 55.2095521,24.9926514 53.421992,24.9926514 L53.421992,24.9918349 Z M58.8509994,24.8873212 L60.3167495,24.8873212 L60.3167495,18.2490692 L58.8509994,18.2490692 L58.8509994,24.8873212 Z M65.2978433,24.9812566 C64.2572046,24.9855293 63.2514587,24.6073457 62.4727942,23.9189366 L63.3391426,22.8844144 C63.9369066,23.3784049 64.5649682,23.6927624 65.3256844,23.6927624 C65.9250861,23.6927624 66.2870199,23.4551571 66.2870199,23.0664968 L66.2870199,23.0469005 C66.2870199,22.6770201 66.0593783,22.4867725 64.9465546,22.2026259 C63.6052704,21.8605069 62.738922,21.4906264 62.738922,20.1727742 L62.738922,20.1523614 C62.738922,18.9480044 63.7100838,18.1502711 65.0702017,18.1502711 C66.0397257,18.1502711 66.867588,18.454014 67.5431432,18.9953622 L66.7816082,20.0968385 C66.1920327,19.6885819 65.6114647,19.4411784 65.051368,19.4411784 C64.4888147,19.4411784 64.194027,19.6975635 64.194027,20.0200862 L64.194027,20.0396825 C64.194027,20.4757006 64.4806262,20.6185904 65.6302983,20.9117186 C66.9814088,21.2628193 67.7429437,21.7470116 67.7429437,22.9056437 L67.7429437,22.9227905 C67.7429437,24.2422758 66.7341146,24.9812566 65.2978433,24.9812566 L65.2978433,24.9812566 Z M69.9653157,24.8873212 L69.9653157,18.2490692 L74.9873522,18.2490692 L74.9873522,19.5465086 L71.4204207,19.5465086 L71.4204207,20.8937553 L74.5590912,20.8937553 L74.5590912,22.1944608 L71.4204207,22.1944608 L71.4204207,23.5898818 L75.0348458,23.5898818 L75.0348458,24.8881377 L69.9661345,24.8881377 L69.9653157,24.8873212 Z M81.0902771,24.8873212 L81.0902771,18.2490692 L82.5552083,18.2490692 L82.5552083,23.5596708 L85.8740269,23.5596708 L85.8740269,24.8881377 L81.0902771,24.8881377 L81.0902771,24.8873212 Z M87.9932231,24.8873212 L89.4573355,24.8873212 L89.4573355,18.2490692 L87.9932231,18.2490692 L87.9932231,24.8873212 Z M96.7418679,24.8873212 L93.5180365,20.6659481 L93.5180365,24.8873212 L92.0727578,24.8873212 L92.0727578,18.2490692 L93.4238682,18.2490692 L96.5428861,22.3365341 L96.5428861,18.2490692 L97.9881649,18.2490692 L97.9881649,24.8881377 L96.7418679,24.8881377 L96.7418679,24.8873212 Z M100.534803,24.8873212 L100.534803,18.2490692 L105.55684,18.2490692 L105.55684,19.5465086 L101.989908,19.5465086 L101.989908,20.8937553 L105.129398,20.8937553 L105.129398,22.1944608 L101.989908,22.1944608 L101.989908,23.5898818 L105.604333,23.5898818 L105.604333,24.8881377 L100.533984,24.8881377 L100.534803,24.8873212 Z M109.229404,19.4738389 C109.133598,19.4191325 108.979653,19.3921876 108.76757,19.3921876 L108.441665,19.3921876 L108.441665,20.1776733 L108.788041,20.1776733 C108.947718,20.1776733 109.070546,20.15971 109.15325,20.1286825 C109.300644,20.07071 109.376798,19.9555817 109.376798,19.7898295 C109.376798,19.6338755 109.326029,19.5269123 109.229404,19.4738389 Z M108.818339,19.1325364 C109.086923,19.1325364 109.285086,19.1586648 109.410371,19.2101052 C109.634737,19.3048207 109.746101,19.4877196 109.746101,19.758802 C109.746101,19.9531321 109.67568,20.0935724 109.535655,20.1850219 C109.439011,20.2416524 109.331687,20.2777881 109.220396,20.2911686 C109.393175,20.315664 109.515184,20.3891502 109.593794,20.5042785 C109.666476,20.6008107 109.707125,20.7175582 109.710071,20.8382324 L109.710071,20.996636 C109.710071,21.0456268 109.713347,21.1003331 109.715803,21.1574891 C109.720717,21.214645 109.72563,21.2530211 109.736275,21.2701679 L109.750195,21.2979293 L109.393175,21.2979293 C109.389994,21.2908414 109.387525,21.2834567 109.385805,21.2758835 C109.383368,21.2679329 109.381991,21.259697 109.381711,21.2513881 L109.373522,21.1811679 L109.373522,21.0097002 C109.373522,20.7606637 109.304738,20.5965445 109.168808,20.5148932 C109.086923,20.4691685 108.943623,20.4446731 108.743004,20.4446731 L108.441665,20.4446731 L108.441665,21.2979293 L108.057622,21.2979293 L108.057622,19.1325364 L108.819157,19.1325364 L108.818339,19.1325364 Z M107.655565,19.0231237 C107.331767,19.3380899 107.152797,19.7724173 107.160976,20.223398 C107.160976,20.6945261 107.324747,21.0978836 107.653108,21.431021 C107.983107,21.7641583 108.383527,21.9315435 108.856006,21.9315435 C109.326029,21.9315435 109.742007,21.7192501 110.059722,21.431021 C110.406917,21.1150304 110.554311,20.6945261 110.554311,20.223398 C110.562571,19.7722405 110.383251,19.3377833 110.058904,19.0231237 C109.744749,18.6968873 109.308712,18.5155767 108.855187,18.5226011 C108.386802,18.5226011 107.987201,18.6891698 107.655565,19.0231237 L107.655565,19.0231237 Z M110.256248,21.6196355 C109.889843,21.9974403 109.383022,22.2072728 108.856006,22.1993599 C108.330122,22.2076132 107.824436,21.9976368 107.459858,21.6196355 C107.083705,21.2513248 106.876113,20.744903 106.885841,20.2193154 C106.885841,19.6787837 107.079091,19.2150042 107.464772,18.82961 C107.828427,18.4537026 108.332282,18.245226 108.856006,18.2539683 C109.403001,18.2539683 109.869748,18.4450323 110.256248,18.82961 C110.641109,19.2133712 110.835178,19.6755177 110.835178,20.2193154 C110.835178,20.7671958 110.641109,21.2317918 110.256248,21.6196355 L110.256248,21.6196355 Z" id="Shape" fill="#FFFFFE"></path>
                                    </g>
                                </g>
                            </g>
                        </g>
                    </g>
                </g>
            </g>
        </g>
    </g>
</svg>