<?xml version="1.0" encoding="UTF-8"?>
<svg width="106px" height="26px" viewBox="0 0 106 26" version="1.1" xmlns="http://www.w3.org/2000/svg" xmlns:xlink="http://www.w3.org/1999/xlink">
    <!-- Generator: Sketch 55.2 (78181) - https://sketchapp.com -->
    <title>Spoke Logo 3</title>
    <desc>Created with Sketch.</desc>
    <g id="Michael-L.-Castilla's-Portfolio" stroke="none" stroke-width="1" fill="none" fill-rule="evenodd">
        <g id="Portfolio-(Panels)" transform="translate(-1133.000000, -305.000000)">
            <g id="Panels" transform="translate(332.000000, 49.000000)">
                <g id="Spoke" transform="translate(0.000000, 234.000000)">
                    <g id="Spoke-Logo-3" transform="translate(801.000000, 22.000000)">
                        <g id="Spoke-Logo-2">
                            <g id="Spoke-Logo">
                                <g id="Logo">
                                    <g id="Layer_1_copy" transform="translate(0.000000, 0.575573)" fill-rule="nonzero">
                                        <path d="M13.5856211,6.20245519 C10.0728072,2.66381838 5.43846439,0.470424778 0.485095614,0.00209188559 C0.361143535,-0.0100281274 0.237848458,0.0309042406 0.145506374,0.114831113 C0.0531642893,0.198757985 0.000335113767,0.317899518 0,0.442980327 L0,19.2911255 C0,19.5983078 0.247939113,19.8473282 0.553787508,19.8473282 L19.3200859,19.8473282 C19.4446235,19.8469917 19.5632477,19.7939321 19.6468101,19.7011873 C19.7303725,19.6084424 19.7711272,19.4846096 19.7590598,19.3601169 C19.2927606,14.3851447 17.1088916,9.73058985 13.5856211,6.20245519 Z" id="Path" fill="#A8F7F4"></path>
                                        <path d="M10.3173656,9.67971355 C7.55779001,6.81480371 3.89678442,5.07028839 0,4.76335878 L0,19.2870571 C0,19.5964863 0.242289449,19.8473282 0.54116863,19.8473282 L15.0184684,19.8473282 C14.6223394,16.0007681 12.9628285,12.4115533 10.3173656,9.67971355 L10.3173656,9.67971355 Z" id="Path" fill="#CAFAF8"></path>
                                        <path d="M9.48534844,19.8473282 C8.78783603,14.9049864 4.92088008,11.0211652 0,10.3206107 L0,19.2858797 C0,19.5959592 0.25027753,19.8473282 0.559010509,19.8473282 L9.48534844,19.8473282 Z" id="Path" fill="#FFFFFF"></path>
                                    </g>
                                    <g id="Layer_1-2-2" transform="translate(27.738057, 0.866667)" fill="#FFFFFF" fill-rule="nonzero">
                                        <g id="Layer_1-2">
                                            <path d="M13.0902762,9.55010753 L13.0540652,9.52427527 C11.7082231,8.56613333 10.5826645,8.36886882 8.53900627,8.01034839 L8.52995352,8.01034839 C8.01998194,7.92110968 7.44211475,7.81934624 6.77447445,7.69175054 C3.87759451,7.12344086 3.87759451,6.18095484 3.87759451,5.72771613 C3.87759451,4.83532903 4.39058366,3.33862366 7.82610222,3.33862366 C9.98669184,3.33862366 10.9779679,3.77620645 12.0273325,4.2404043 L12.1782117,4.30772473 C12.994412,4.66590693 13.9359027,4.26970108 14.28109,3.42277419 C14.6262774,2.57584731 14.2444459,1.59891338 13.4282456,1.24073118 L13.2811384,1.17575914 C12.1035265,0.6552 10.640753,0.00782795699 7.82383903,0.00782795699 C4.52335733,0.00782795699 0.669903487,1.50531613 0.669903487,5.72223656 C0.669903487,8.47611183 2.5257172,10.2374022 6.18378252,10.9560086 C6.87556349,11.0875183 7.46625541,11.1908473 7.98980611,11.2832172 L8.00112205,11.2832172 C9.95349843,11.6252989 10.4906282,11.7364559 11.2186202,12.2460559 C11.5324489,12.4863742 11.8900325,12.8722925 11.8900325,13.7380645 C11.9063229,14.2498412 11.7147157,14.7451881 11.3619554,15.1032602 C10.7199646,15.7764645 9.48728181,16.1475097 7.89173465,16.1475097 C4.53844524,16.1475097 2.79880849,14.5740903 2.72638649,14.5036387 L2.67206999,14.4504086 C2.38150896,14.1671042 1.99802739,14.0090003 1.59931913,14.008129 C1.15524976,14.0095059 0.731704166,14.2023146 0.430005616,14.5404301 C-0.170771354,15.2154008 -0.137153975,16.2660748 0.505445198,16.8982108 C0.769483735,17.1612301 3.22127014,19.4704774 7.89852422,19.4704774 C11.0496355,19.4704774 12.7643772,18.3667355 13.6477747,17.4399054 C14.5938499,16.4585651 15.1187335,15.1229191 15.1037587,13.7349333 C15.0984779,11.9861677 14.4044338,10.5356473 13.0902762,9.55010753 Z" id="Path"></path>
                                            <path d="M71.4533543,4.87290323 C67.5440752,4.87290323 64.6570024,7.92580645 64.6570024,12.1372473 C64.6570024,16.2203097 67.5184257,19.3749763 71.5559522,19.3749763 C73.7271033,19.3749763 75.4395818,18.606271 76.459525,17.4132903 C76.6927166,17.1337017 76.819828,16.7755775 76.8171086,16.4058323 C76.8171086,15.4782194 76.1788897,14.8950366 75.3837565,14.8950366 C74.9983966,14.9100037 74.6291852,15.0594969 74.3359007,15.3193118 C73.779911,15.8226495 73.139429,16.5952688 71.4790038,16.5952688 C69.2301498,16.5952688 68.0042566,14.9247828 68.0042566,13.464086 L76.3591903,13.464086 C77.2531494,13.464086 77.8921226,12.6953806 77.8921226,11.9258925 L77.8921226,11.8734452 C77.8921226,7.92189247 75.1325427,4.87290323 71.4533543,4.87290323 Z M68.0585731,10.705514 C68.0585731,9.24794839 69.3108702,7.63069247 71.4827758,7.63069247 C73.3989411,7.63069247 74.6512382,9.24794839 74.6512382,10.705514 L68.0585731,10.705514 Z" id="Shape"></path>
                                            <path d="M57.9375988,11.5532817 L62.1788121,8.18726022 C62.5910436,7.86004322 62.828579,7.3487766 62.8185398,6.81032258 C62.8187402,6.34611411 62.6410615,5.9008701 62.3246545,5.57269853 C62.0082475,5.24452696 61.5790776,5.06035856 61.1317107,5.06077419 C60.7615054,5.06651855 60.4030845,5.19671589 60.1102588,5.43181935 L53.6714905,10.6812473 L53.6714905,1.90297634 C53.6844142,1.26896026 53.3658348,0.677281106 52.8387301,0.356338571 C52.3116254,0.0353960365 51.6584519,0.0353960365 51.1313472,0.356338571 C50.6042425,0.677281106 50.285663,1.26896026 50.2985868,1.90297634 L50.2985868,17.6496946 C50.3179932,18.6017386 51.0673297,19.3630123 51.9850386,19.3630123 C52.9027476,19.3630123 53.6520841,18.6017386 53.6714905,17.6496946 L53.6714905,14.9467011 L55.4066009,13.5681978 L60.1841896,18.8442409 C60.4942501,19.1892272 60.9306325,19.3817854 61.3851877,19.3741935 C61.8319451,19.3673903 62.2601918,19.1879123 62.5861859,18.8708559 C63.2330769,18.1756302 63.2330769,17.0736601 62.5861859,16.3784344 L57.9375988,11.5532817 Z" id="Path"></path>
                                            <path d="M40.8965517,4.87284496 C37.0406505,4.88068491 33.9195375,8.12782081 33.9221741,12.1288874 C33.9248141,16.1299539 37.0502064,19.3726549 40.9061143,19.3749627 C44.7620221,19.3772679 47.8910154,16.138308 47.8981525,12.1372473 C47.9053543,10.2081897 47.1699991,8.3559792 45.8553563,6.99199258 C44.5407136,5.62800595 42.7556222,4.86516724 40.8965517,4.87284496 L40.8965517,4.87284496 Z M40.8965517,16.4324473 C38.5971532,16.4324473 37.2943117,14.5239914 37.2943117,12.1372473 C37.2943117,9.75050323 38.5971532,7.81621505 40.8965517,7.81621505 C43.1959502,7.81621505 44.5251956,9.75128602 44.5251956,12.1372473 C44.5251956,14.5232086 43.1967046,16.4324473 40.8965517,16.4324473 Z" id="Shape"></path>
                                            <path d="M24.9109043,4.87290323 C23.377972,4.87290323 21.6670023,5.53593118 20.8997817,6.38448172 C20.7592047,5.57498552 20.0825784,4.98442003 19.2899011,4.97936344 C18.3702926,4.97936344 17.6807748,5.74806882 17.6807748,6.72891183 L17.6807748,22.4544946 C17.6807748,23.4207435 18.4356561,24.204043 19.3668494,24.204043 C20.2980428,24.204043 21.0529241,23.4207435 21.0529241,22.4544946 L21.0529241,18.0230882 C22.1583939,18.9060823 23.5158587,19.3817562 24.9109043,19.3749763 C28.8971318,19.3749763 31.6567117,16.3526022 31.6567117,12.1106323 C31.6567117,8.00173763 28.9484307,4.87290323 24.9109043,4.87290323 Z M24.6559185,16.4324473 C22.3565201,16.4324473 21.0529241,14.4973763 21.0529241,12.1106323 C21.0529241,9.72388817 22.3565201,7.81621505 24.6559185,7.81621505 C26.955317,7.81621505 28.283808,9.67222366 28.283808,12.1106323 C28.283808,14.5490409 26.955317,16.4324473 24.6559185,16.4324473 Z" id="Shape"></path>
                                        </g>
                                    </g>
                                </g>
                            </g>
                        </g>
                    </g>
                </g>
            </g>
        </g>
    </g>
</svg>