<?xml version="1.0" encoding="UTF-8"?>
<svg width="57px" height="26px" viewBox="0 0 57 26" version="1.1" xmlns="http://www.w3.org/2000/svg" xmlns:xlink="http://www.w3.org/1999/xlink">
    <!-- Generator: Sketch 55.2 (78181) - https://sketchapp.com -->
    <title>Logo</title>
    <desc>Created with Sketch.</desc>
    <g id="Michael-L.-Castilla's-Portfolio" stroke="none" stroke-width="1" fill="none" fill-rule="evenodd">
        <g id="Portfolio-(Panels)" transform="translate(-1184.000000, -460.000000)" fill-rule="nonzero">
            <g id="Panels" transform="translate(332.000000, 49.000000)">
                <g id="Alamo-China" transform="translate(0.000000, 390.000000)">
                    <g id="Logo" transform="translate(852.000000, 21.000000)">
                        <g id="alamo-logo-no-tagline">
                            <path d="M53.3027027,26 C54.2832869,26 55.2237089,25.6132784 55.9170867,24.9249096 C56.6104644,24.2365408 57,23.3029123 57,22.3294118 L57,3.67058824 C57,1.64337833 55.3446636,0 53.3027027,0 L3.6972973,0 C1.65533638,0 0,1.64337833 0,3.67058824 L0,22.3676471 C0.0169369052,24.381663 1.66856022,26.004275 3.6972973,26 L53.3027027,26" id="Path" fill="#0060A9"></path>
                            <path d="M52.2628378,24.4705882 C54.1885135,24.4705882 55.3824324,23.3617647 55.3824324,21.5264706 L55.3824324,4.47352941 C55.3824324,2.63823529 54.227027,1.52941176 52.2628378,1.52941176 L4.73716216,1.52941176 C2.81148649,1.52941176 1.61756757,2.63823529 1.61756757,4.47352941 L1.61756757,21.5647059 C1.61756757,23.4 2.77297297,24.5088235 4.73716216,24.5088235 L52.2628378,24.5088235 L52.2628378,24.4705882 Z M4.19797297,25.2352941 C2.19527027,25.2352941 0.808783784,23.8588235 0.808783784,21.9470588 L0.808783784,4.05294118 C0.787504367,3.16109788 1.14037123,2.30055869 1.78302757,1.67704517 C2.42568392,1.05353165 3.30036663,0.723086332 4.19797297,0.764705882 L52.802027,0.764705882 C54.8047297,0.764705882 56.1912162,2.14117647 56.1912162,4.05294118 L56.1912162,21.9088235 C56.2124956,22.8006668 55.8596288,23.661206 55.2169724,24.2847195 C54.5743161,24.9082331 53.6996334,25.2386784 52.802027,25.1970588 L4.19797297,25.1970588 L4.19797297,25.2352941 Z" id="Shape" fill="#FFEF00"></path>
                            <path d="M53.1486486,9.94117647 C53.1486486,9.82647059 53.0331081,9.82647059 52.9175676,9.82647059 L52.7635135,9.82647059 L52.7635135,10.0941176 L52.9945946,10.0941176 C53.0364416,10.097648 53.0777262,10.0826723 53.1074231,10.0531899 C53.13712,10.0237075 53.1522047,9.98272113 53.1486486,9.94117647 L53.1486486,9.94117647 Z M53.4182432,10.7441176 L53.1486486,10.7441176 L52.8790541,10.2852941 L52.7635135,10.2852941 L52.7635135,10.7441176 L52.5324324,10.7441176 L52.5324324,9.63529412 L52.9560811,9.63529412 C53.2641892,9.63529412 53.4182432,9.71176471 53.4182432,9.97941176 C53.4250554,10.136479 53.306363,10.2711476 53.1486486,10.2852941 L53.4182432,10.7441176 Z M53.6493243,10.1705882 C53.6597981,9.96771066 53.5885304,9.76903306 53.4512467,9.61839462 C53.3139631,9.46775618 53.1219469,9.37753796 52.9175676,9.36763582 C52.7093798,9.36649845 52.5105553,9.45344185 52.3708772,9.60670763 C52.2311991,9.75997342 52.1638928,9.96504987 52.1858108,10.1705882 C52.175337,10.3734658 52.2466047,10.5721434 52.3838884,10.7227819 C52.5211721,10.8734203 52.7131882,10.9636385 52.9175676,10.9735407 L52.9175676,10.9735407 C53.1257553,10.974678 53.3245799,10.8877346 53.4642579,10.7344688 C53.603936,10.5812031 53.6712424,10.3761266 53.6493243,10.1705882 Z M53.9574324,10.1705882 C53.9574324,10.740741 53.4918691,11.2029412 52.9175676,11.2029412 C52.3432661,11.2029412 51.8777027,10.740741 51.8777027,10.1705882 C51.8777027,9.60043545 52.3432661,9.13823529 52.9175676,9.13823529 C53.1955894,9.13078574 53.4644653,9.23715719 53.661128,9.43239921 C53.8577907,9.62764123 53.9649362,9.89457484 53.9574324,10.1705882 L53.9574324,10.1705882 Z M27.1135135,15.3705882 C27.1135135,16.25 26.0351351,16.8235294 24.9567568,16.8235294 C24.4945946,16.8235294 23.8398649,16.6323529 23.8398649,15.9441176 C23.8398649,15.1411765 24.5716216,14.95 25.4959459,14.8352941 C26.4972973,14.7205882 26.9209459,14.6058824 27.152027,14.4529412 L27.152027,15.3705882 L27.1135135,15.3705882 Z M10.8222973,10.1323529 L12.7094595,14.0323529 L9.05067568,14.0323529 L10.8222973,10.1323529 Z M48.4114865,12.0823529 C46.6013514,12.0823529 46.2932432,13.3823529 46.2932432,14.3382353 C46.2932432,15.2941176 46.6398649,16.5941176 48.4114865,16.5941176 C50.1831081,16.5941176 50.5297297,15.2941176 50.5297297,14.3382353 C50.5297297,13.3823529 50.2216216,12.0823529 48.4114865,12.0823529 L48.4114865,12.0823529 Z M43.4047297,13.0764706 C43.4047297,11.4705882 41.7101351,10.8205882 39.9385135,10.8205882 C38.9808415,10.7874406 38.0700243,11.2323828 37.5121622,12.0058824 C36.8959459,11.2029412 36.2797297,10.8205882 34.9702703,10.8205882 C33.3527027,10.8205882 33.3141892,11.5088235 33.0060811,12.0058824 L32.9675676,12.0058824 L32.9675676,10.9352941 L30.4641892,10.9352941 L30.4641892,18.0470588 L33.0831081,18.0470588 L33.0831081,13.8411765 C33.0831081,13.0382353 33.4297297,12.5794118 34.5851351,12.6176471 C35.6635135,12.6558824 35.702027,13.2676471 35.702027,13.9176471 L35.702027,18.0852941 L38.397973,18.0852941 L38.397973,13.8411765 C38.397973,12.9617647 38.6290541,12.5029412 39.822973,12.5411765 C40.7472973,12.5794118 41.0939189,12.9235294 41.0168919,13.8029412 L41.0168919,18.0088235 L43.4047297,18.0088235 L43.4047297,13.0764706 Z M29.8864865,16.5558824 L29.8864865,12.5794118 C29.3858108,10.6676471 27.1135135,10.5529412 25.8040541,10.5529412 C23.9168919,10.5529412 21.9527027,10.8588235 21.6831081,13.1147059 L24.147973,13.1147059 C24.225,12.6941176 24.3405405,12.0058824 25.5344595,12.0058824 C26.1506757,12.0058824 27.2290541,12.0441176 27.2290541,12.8470588 C27.2290541,13.2676471 26.7668919,13.3823529 26.3817568,13.4205882 L24.0709459,13.6882353 C22.5304054,13.8794118 21.375,14.6058824 21.375,16.0205882 C21.375,17.55 22.8,18.1617647 24.1864865,18.1617647 C25.3139976,18.2116854 26.4175077,17.8282469 27.2675676,17.0911765 C27.280081,17.3973881 27.358896,17.6973297 27.4986486,17.9705882 L29.925,17.9705882 L29.8864865,16.5558824 Z M20.8743243,8.10588235 L18.3709459,8.10588235 L18.3709459,18.0088235 L20.8743243,18.0088235 L20.8743243,8.10588235 Z M8.08783784,15.9441176 L13.6337838,15.9441176 L14.6351351,17.9705882 L17.9087838,17.9705882 L12.7864865,7.99117647 L9.24324324,7.99117647 L4.31351351,18.0088235 L7.16351351,18.0088235 L8.08783784,15.9441176 Z M48.4114865,18.2 C46.0236486,18.2 43.7513514,16.9764706 43.7513514,14.3382353 C43.7513514,11.7 46.0236486,10.4764706 48.4114865,10.4764706 C50.7993243,10.4764706 53.0716216,11.7 53.0716216,14.3382353 C53.0716216,16.9764706 50.7993243,18.2 48.4114865,18.2 Z" id="Shape" fill="#FFEF00"></path>
                        </g>
                    </g>
                </g>
            </g>
        </g>
    </g>
</svg>